<svg id="Flat" height="512" viewBox="0 0 512 512" width="512" xmlns="http://www.w3.org/2000/svg"><path d="m40 408c0-123.712 78.8-208 176-208s176 84.288 176 208c0 0-80 48-176 48-88 0-176-48-176-48z" fill="#f7d1b2"/><circle cx="216" cy="112" fill="#f7d1b2" r="88"/><path d="m368 264h64c0 30.545 40 64 40 64 0 142.545-104 160-104 160s-104-17.455-104-160c0 0 40-33.455 40-64z" fill="#eb423f"/><path d="m392 352a24 24 0 1 0 -40 17.884v38.116h32v-38.116a23.934 23.934 0 0 0 8-17.884z" fill="#e9eef2"/></svg>