<?xml version="1.0" standalone="no"?>
<!DOCTYPE svg PUBLIC "-//W3C//DTD SVG 20010904//EN"
 "http://www.w3.org/TR/2001/REC-SVG-20010904/DTD/svg10.dtd">
<svg version="1.0" xmlns="http://www.w3.org/2000/svg"
 width="1456.000000pt" height="1456.000000pt" viewBox="0 0 1456.000000 1456.000000"
 preserveAspectRatio="xMidYMid meet">
<metadata>
Created by potrace 1.14, written by Peter Selinger 2001-2017
</metadata>
<g transform="translate(0.000000,1456.000000) scale(0.100000,-0.100000)"
fill="#000000" stroke="none">
<path d="M0 7275 l0 -4665 7280 0 7280 0 0 4665 0 4665 -7280 0 -7280 0 0
-4665z m6448 2688 l2 -763 -840 0 -840 0 -2 -2687 -3 -2688 -930 0 -930 0 -3
2688 -2 2687 -840 0 -840 0 0 765 0 765 2613 -2 2612 -3 3 -762z m2864 -725
l3 -1493 47 85 c65 117 196 321 368 570 80 116 471 687 870 1268 l725 1057
1018 3 c833 2 1018 0 1015 -11 -2 -7 -489 -703 -1083 -1547 -594 -844 -1079
-1537 -1078 -1540 1 -4 482 -861 1068 -1905 586 -1044 1065 -1899 1065 -1901
0 -2 -474 -4 -1053 -4 l-1053 0 -678 1313 c-373 721 -681 1315 -685 1319 -3 3
-128 -67 -278 -155 l-272 -162 -1 -1157 0 -1158 -940 0 -940 0 0 3455 0 3455
940 0 940 0 2 -1492z"/>
</g>
</svg>
